<?xml version="1.0" encoding="UTF-8" standalone="no"?>
<svg
   xmlns:dc="http://purl.org/dc/elements/1.1/"
   xmlns:cc="http://creativecommons.org/ns#"
   xmlns:rdf="http://www.w3.org/1999/02/22-rdf-syntax-ns#"
   xmlns:svg="http://www.w3.org/2000/svg"
   xmlns="http://www.w3.org/2000/svg"
   xmlns:sodipodi="http://sodipodi.sourceforge.net/DTD/sodipodi-0.dtd"
   xmlns:inkscape="http://www.inkscape.org/namespaces/inkscape"
   inkscape:version="1.0 (1.0+r73+1)"
   sodipodi:docname="lmn_tux_positiv.svg"
   id="svg9"
   version="1.2"
   viewBox="0 0 217 256"
   height="256pt"
   width="217pt">
  <title
     id="title1511">linuxmuster.net Tux</title>
  <metadata
     id="metadata15">
    <rdf:RDF>
      <cc:Work
         rdf:about="">
        <dc:format>image/svg+xml</dc:format>
        <dc:type
           rdf:resource="http://purl.org/dc/dcmitype/StillImage" />
        <dc:title>linuxmuster.net Tux</dc:title>
        <cc:license
           rdf:resource="http://creativecommons.org/licenses/by-sa/4.0/" />
        <dc:date>16.06.2020</dc:date>
        <dc:creator>
          <cc:Agent>
            <dc:title>linuxmuster.net e.V.</dc:title>
          </cc:Agent>
        </dc:creator>
        <dc:rights>
          <cc:Agent>
            <dc:title>linuxmuster.net e.V.</dc:title>
          </cc:Agent>
        </dc:rights>
        <dc:publisher>
          <cc:Agent>
            <dc:title>linuxmuster.net e.V.</dc:title>
          </cc:Agent>
        </dc:publisher>
        <dc:source>https://isc.tamu.edu/~lewing/linux/</dc:source>
        <dc:description>2D version; adapted to CI linuxmuster.net</dc:description>
      </cc:Work>
      <cc:License
         rdf:about="http://creativecommons.org/licenses/by-sa/4.0/">
        <cc:permits
           rdf:resource="http://creativecommons.org/ns#Reproduction" />
        <cc:permits
           rdf:resource="http://creativecommons.org/ns#Distribution" />
        <cc:requires
           rdf:resource="http://creativecommons.org/ns#Notice" />
        <cc:requires
           rdf:resource="http://creativecommons.org/ns#Attribution" />
        <cc:permits
           rdf:resource="http://creativecommons.org/ns#DerivativeWorks" />
        <cc:requires
           rdf:resource="http://creativecommons.org/ns#ShareAlike" />
      </cc:License>
    </rdf:RDF>
  </metadata>
  <defs
     id="defs13" />
  <sodipodi:namedview
     inkscape:current-layer="svg9"
     inkscape:window-maximized="1"
     inkscape:window-y="0"
     inkscape:window-x="36"
     inkscape:cy="170.66667"
     inkscape:cx="144.66667"
     inkscape:zoom="1.6845703"
     showgrid="false"
     id="namedview11"
     inkscape:window-height="739"
     inkscape:window-width="1330"
     inkscape:pageshadow="2"
     inkscape:pageopacity="0"
     guidetolerance="10"
     gridtolerance="10"
     objecttolerance="10"
     borderopacity="1"
     bordercolor="#666666"
     pagecolor="#ffffff" />
  <path
     style="display:inline;fill:#0c2842;fill-opacity:1;fill-rule:nonzero;stroke:none"
     d="M 70.890625,42.929688 C 70.039062,14.039062 81.304688,1.277344 104.67969,0.851562 c 23.3789,-0.425781 38.04297,11.902344 41.01562,28.054688 2.97656,16.148438 1.27735,37.402344 7.22656,48.453125 5.94922,11.050781 9.77735,19.550781 19.97657,32.300785 10.20312,12.75 16.57812,25.71484 19.55078,41.4414 2.97656,15.72656 4.67578,23.16406 -2.97266,31.24219 -7.65234,8.07422 -21.2539,21.25 -31.45312,6.375 -5.10938,-7.44922 -5.66016,-16.71094 2.97265,-18.70313 5.52735,-1.27343 9.49219,-0.85156 13.60157,1.27344 4.10937,2.125 5.10156,1.13672 0.14453,-2.54687 -4.96094,-3.6836 -5.95313,-0.28516 -4.25391,-6.23438 1.70313,-5.95312 3.95703,-16.60937 -0.71875,-28.36719 -2.15625,-5.41796 -9.45703,-20.26171 -16.33594,-23.91796 -0.63281,-0.33985 -2.44531,-1.08203 -1.21875,0.42968 1.86719,2.30079 11.7461,16.86719 14.55469,25.57032 3,9.30078 3.4375,18.20703 1.87891,23.875 -1.5586,5.66796 -4.25,7.93359 -7.50782,7.93359 -3.25781,0 -6.23437,1.55859 -6.23437,-5.94922 0,-7.50781 0.77734,-18.84375 -3.25781,-28.40625 -4.03907,-9.5625 -8.92578,-16.15234 -9.98828,-20.1914 -1.0625,-4.03516 -3.40235,-14.875005 -8.28907,-21.039068 -4.88672,-6.160156 -7.01562,-10.199218 -4.46484,-17.210937 2.55078,-7.015625 0.64062,-8.925781 -4.46094,-10.414063 -5.10156,-1.488281 -11.90234,-3.613281 -13.60156,-7.011718 -1.69922,-3.402344 -0.63672,-10.203125 3.1875,-11.902344 3.82422,-1.699219 10.19922,0.636719 10.41406,5.523438 0.21094,4.890624 -2.125,7.441406 -1.48828,8.503906 0.63672,1.0625 4.03906,2.761718 5.73828,0.847656 1.69922,-1.910156 2.125,-7.863281 0.42578,-13.386719 -1.69921,-5.527343 -2.55078,-9.351562 -8.71484,-10.625 -6.16406,-1.277343 -8.92578,-0.851562 -11.89844,2.972657 -2.97656,3.824218 -4.25,9.988281 -3.40234,14.453124 0.85156,4.460938 -0.84766,1.910157 -3.82422,1.699219 -2.976562,-0.210937 -2.125,-0.425781 -5.101562,-0.210937 -2.972657,0.210937 -1.910157,-1.703125 -2.125,-4.890625 -0.210938,-3.1875 -0.636719,-9.773438 -5.101563,-12.324219 -4.460937,-2.550781 -12.113281,0.425781 -11.898437,11.050781 0.210937,10.625 3.824218,15.726563 5.949218,11.902344 2.125,-3.828125 1.0625,-1.914063 -1.0625,-3.613281 -2.125,-1.703125 -3.613281,-8.714844 -1.273437,-10.839844 2.335937,-2.125 5.097656,-2.125 6.585937,-0.851562 1.488282,1.277343 3.824219,5.527343 3.402344,8.289062 -0.425781,2.761719 -0.640625,2.976562 -3.402344,4.890625 -2.761718,1.910156 -3.824218,3.609375 -7.011718,5.734375 -3.1875,2.125 -4.464844,7.015625 -1.914063,8.289062 2.550781,1.277344 2.761719,1.0625 4.890625,4.25 2.125,3.1875 5.734375,4.675782 14.660156,3.1875 8.925784,-1.488281 12.593754,-3.601562 19.339844,-5.949218 4.88672,-1.699219 3.1875,-1.488282 4.88672,-3.402344 1.70312,-1.910156 4.46484,0.851562 1.91406,2.550781 -2.55078,1.699219 -8.28906,3.402344 -12.53906,4.890625 -4.25,1.488282 -9.13672,5.738282 -18.062501,5.3125 -8.925781,-0.425781 -2.761719,-0.214844 -5.527344,-0.425781 -2.761719,-0.214844 -4.035156,0.210937 -1.0625,2.335937 2.976563,2.125 2.765625,2.765626 5.316406,3.613282 2.546875,0.851562 5.949219,0.851562 9.988279,-0.636719 4.03516,-1.488281 14.23438,-5.949219 17.42578,-8.074219 3.1875,-2.125 5.73829,0.636719 2.54688,2.761719 -3.18359,2.125 -4.03516,1.488281 -7.01172,3.398437 -2.97656,1.914063 -8.5,5.101563 -12.11328,8.503907 -3.613282,3.398437 -4.460939,3.609375 -8.925782,3.824219 -4.460938,0.210937 -7.226563,-4.464844 -9.136719,-6.589844 -1.914063,-2.125 -1.699219,-3.398438 -4.039063,-5.949219 -2.335937,-2.550781 -2.550781,-1.914063 -2.976562,0.851563 -0.425782,2.761718 -3.613282,9.773437 -6.375,14.449222 -2.761719,4.67578 -2.972656,10.41406 -2.550782,14.45312 0.425782,4.03516 -0.636718,4.46094 -3.824218,9.13672 -3.1875,4.67578 -8.5,18.48828 -9.351563,22.95312 -0.847656,4.46094 -1.910156,13.59766 -1.484375,18.91407 0.421875,5.3125 -1.0625,6.375 -4.890625,2.76172 -3.824219,-3.61329 -5.097656,-7.65235 -4.886719,-12.96485 0.179688,-4.54297 0.8125,-7.7539 1.394532,-9.42187 0.585937,-1.66407 0.02344,-2.85157 -1.183594,-0.77735 -2.617188,4.50782 -2.761719,12.32422 -2.125,15.08594 0.640625,2.76563 0.851562,7.65234 7.863281,14.24219 7.015625,6.58594 17.214844,15.72656 25.714844,21.88672 8.5,6.16406 11.476563,13.8125 -1.0625,19.33984 7.863281,10.625 12.113281,16.15234 8.714844,23.16406 7.011719,-4.03906 4.3125,-13.55468 0.914062,-16.10547 -3.402343,-2.55078 -1.339843,-4.50781 1.636719,-2.59765 2.972656,1.91406 4.035156,5.73828 15.72656,5.52734 11.6875,-0.21094 24.28907,-1.39844 31.30078,-11.59765 7.01563,-10.19922 8.36719,-1.61719 6.66797,4.33203 -1.69922,5.95312 -5.8789,19.3789 0.70703,18.10547 0.85157,-7.86329 2.76172,-14.66407 2.76172,-23.16797 0,-8.5 0.86328,-12.60157 0.19922,-24.9375 -0.64453,-11.88282 4.47656,-12.67578 9.78906,-12.67578 5.3125,0 3.61328,3.39843 0.21485,3.1875 -3.40235,-0.21094 -7.01563,1.0625 -7.22657,9.77734 -0.21093,8.71094 0,7.86328 1.48829,15.72656 1.48828,7.85938 1.69921,10.19922 0.42578,18.91016 -1.27735,8.71484 -2.33985,13.39062 3.39843,18.70312 5.73829,5.3125 14.45313,3.82422 18.91407,0.42578 4.46093,-3.39843 12.96484,-11.26562 20.61328,-13.8125 7.65234,-2.55078 15.72656,-4.46484 19.97656,-8.71484 4.25,-4.25 3.1875,-7.22656 -1.27344,-9.5625 -4.46093,-2.33984 -8.71484,-1.27734 -12.11328,-5.10156 -3.40234,-3.82422 -5.10156,-12.32422 -3.82812,-16.78906 1.27734,-4.46094 2.76562,-2.55079 2.76562,0.64062 0,3.1875 0.21094,6.16016 3.39844,10.19922 3.1875,4.03906 6.16406,5.94922 11.26562,9.13672 5.09766,3.1875 8.28516,8.28906 1.91016,12.75 -6.375,4.46484 -9.98828,7.01562 -15.30078,9.14062 -5.3125,2.125 -14.02734,7.22657 -19.33984,12.53907 -5.3125,5.3125 -8.28516,9.98828 -18.69922,9.98828 -10.41407,0 -15.16797,-2.5 -18.27735,-8.71485 -2.125,-4.25 -3.1875,-3.61328 -8.07422,-3.82422 -4.89062,-0.21093 -21.2539,-0.42578 -34.003901,-0.21093 -12.75,0.21093 -17,2.33593 -22.738281,7.01172 -5.738282,4.67578 -7.863282,8.28906 -18.703126,4.67578 -10.835937,-3.61328 -16.574218,-7.65235 -32.726562,-10.83985 -16.152344,-3.1875 -7.4375,-1.69922 -17.214844,-3.82422 -9.773437,-2.125 -9.136718,-6.80078 -7.863281,-10.625 1.277344,-3.82812 4.464844,-9.77734 1.699219,-17.64062 -2.761719,-7.86328 -1.699219,-15.9375 5.738281,-15.9375 7.4375,0 14.453125,1.48828 17.425781,-8.28906 2.976563,-9.77735 3.828125,-2.125 2.976563,0.42578 -0.851563,2.55078 -1.273438,9.5625 -7.863281,10.625 -6.585938,1.0625 -8.074219,-0.42578 -12.113282,-0.42578 -4.035156,0 -5.738281,2.76172 -3.613281,7.4375 2.125,4.67578 4.464844,9.5625 4.039063,13.60156 -0.425782,4.03906 -0.851563,5.52734 -3.824219,9.35156 -2.976563,3.82422 -2.550781,5.73828 2.761719,7.01172 5.3125,1.27734 14.875,3.82813 23.800781,5.95313 8.925781,2.125 9.5625,2.125 25.078125,6.16015 15.511718,4.03906 19.761718,-3.1875 21.039062,-11.89844 1.273438,-8.71484 -4.675781,-17.0039 -10.203125,-25.28906 -5.523437,-8.28906 -11.472656,-17.85156 -18.699219,-26.5664 -7.226562,-8.71485 -11.476562,-9.35157 -15.089843,-7.4375 -3.613281,1.91406 -4.25,1.48828 -4.460938,-3.40235 -0.214843,-4.88672 -0.636719,-8.07422 3.398438,-15.30078 4.039062,-7.22266 7.652343,-15.08594 11.902343,-27.19922 4.25,-12.11328 8.074219,-14.45312 15.300782,-24.86718 7.226562,-10.414068 4.039062,-6.375005 9.136718,-13.386724 5.101563,-7.011718 3.613282,-5.738281 3.1875,-16.789062 C 71.742188,63.757812 71.316406,57.382812 70.890625,42.929688 Z M 50.597656,129.32031 c 1.097656,1.33985 2.644532,-1.80078 4.273438,-2.97656 1.464844,-1.33984 2.074218,-3.22656 1.75,-5.07031 -0.164063,-1.00391 -1.789063,-0.66797 -2.117188,-0.33594 -0.976562,1.00781 -0.777344,2.60938 -1.464844,4.02344 -0.8125,1.67969 -3.542968,3.01953 -2.441406,4.35937 z M 141.94922,84.929688 c 2.32031,1.933593 3.72265,3.613281 4.99609,0.742187 1.27344,-2.867187 1.27344,-4.035156 -1.80469,-5.207031 -3.08203,-1.167969 -4.46484,-2.441406 -5.84375,-4.035156 -1.38281,-1.59375 -1.875,1.132812 -0.74609,3.824218 1.38281,3.292969 2.1875,3.664063 3.39844,4.675782 z M 94.085938,58.578125 c -1.59375,-0.320313 -3.503907,-0.214844 -4.566407,1.0625 -0.425781,0.421875 -0.214843,1.59375 0.53125,1.910156 0.957031,0.425781 1.59375,-0.53125 1.804688,-1.273437 0.105469,-0.320313 0.214843,-0.746094 0.53125,-0.851563 0.425781,-0.210937 1.046875,-0.03516 1.488281,-0.210937 0.53125,-0.210938 0.320312,-0.636719 0.210938,-0.636719 z m 7.511722,0.292969 c 0.64062,0.953125 1.80859,0.953125 2.76562,1.378906 0.53125,0.214844 1.59375,0.53125 1.91016,-0.210938 0.74609,-2.339843 -2.4375,-1.59375 -3.92969,-1.59375 -0.32031,0 -1.0625,-0.105468 -0.74609,0.425782 z m 15.5039,-10.316406 c 1.42578,0.07812 3.41797,2.667968 3.61328,5.640624 0.0273,0.46875 1.23438,0.441407 1.48829,-0.03516 0.6914,-1.171875 0.21484,-2.5 -0.10547,-3.925781 -0.25391,-1.140625 -1.64453,-2.34375 -2.82032,-2.867187 -0.78125,-0.390626 -1.5664,-0.519532 -2.61328,-0.390626 -0.25781,0.132813 -1.14453,1.496094 0.4375,1.578126 z M 85.4375,47.832031 c -1.332031,0.101563 -0.855469,1.121094 -0.792969,1.941407 1.839844,1.035156 2.015625,3.371093 2.390625,5.222656 0.05469,0.703125 1.089844,0.390625 1.1875,0.148437 0.828125,-1.472656 -0.179687,-3.160156 -0.546875,-4.898437 -0.304687,-0.914063 -0.90625,-1.925782 -1.777343,-2.566406 -0.128907,-0.109376 -0.34375,0.144531 -0.460938,0.152343 z m 40.58203,-32.566406 c -1.3164,-1.078125 -3.375,-1.5 -4,0.25 -0.625,1.5 -0.375,3 -0.75,4.625 0,0.5 -0.625,0.625 -1,1.125 -0.5,0.625 -0.375,1.375 -0.125,1.625 1.25,1.25 3.5,-1.25 5.125,-2.125 1.25,-0.75 3,0.25 4.375,-0.625 0.375,-0.25 0.5,-0.875 0.125,-1.375 -0.875,-1.5 -2.375,-2.375 -3.75,-3.5"
     id="path2" />
</svg>
