<?xml version="1.0" encoding="UTF-8" standalone="no"?>
<svg
   xmlns:dc="http://purl.org/dc/elements/1.1/"
   xmlns:cc="http://creativecommons.org/ns#"
   xmlns:rdf="http://www.w3.org/1999/02/22-rdf-syntax-ns#"
   xmlns:svg="http://www.w3.org/2000/svg"
   xmlns="http://www.w3.org/2000/svg"
   xmlns:sodipodi="http://sodipodi.sourceforge.net/DTD/sodipodi-0.dtd"
   xmlns:inkscape="http://www.inkscape.org/namespaces/inkscape"
   xml:space="preserve"
   enable-background="new 0 0 488.038 84.542"
   viewBox="0 0 569.47321 84.5161"
   height="90.150505"
   width="607.43811"
   y="0px"
   x="0px"
   id="Ebene_1"
   version="1.1"
   sodipodi:docname="logo-linuxmuster-1c-cmyk-negativ_eV.svg"
   inkscape:version="0.92.3 (2405546, 2018-03-11)"><title
   id="title848">logo-linuxmuster-1c-cmyk-negativ_ev</title><sodipodi:namedview
   pagecolor="#ffffff"
   bordercolor="#666666"
   borderopacity="1"
   objecttolerance="10"
   gridtolerance="10"
   guidetolerance="10"
   inkscape:pageopacity="0"
   inkscape:pageshadow="2"
   inkscape:window-width="1251"
   inkscape:window-height="691"
   id="namedview41"
   showgrid="false"
   inkscape:zoom="0.81983661"
   inkscape:cx="-581.82325"
   inkscape:cy="45.075253"
   inkscape:window-x="29"
   inkscape:window-y="0"
   inkscape:window-maximized="1"
   inkscape:current-layer="Ebene_1" /><metadata
   id="metadata61"><rdf:RDF><cc:Work
       rdf:about=""><dc:format>image/svg+xml</dc:format><dc:type
         rdf:resource="http://purl.org/dc/dcmitype/StillImage" /><dc:title>logo-linuxmuster-1c-cmyk-negativ_ev</dc:title><cc:license
         rdf:resource="http://creativecommons.org/licenses/by-nd/4.0/" /><dc:creator><cc:Agent><dc:title>linuxmuster.net e.V.</dc:title></cc:Agent></dc:creator><dc:rights><cc:Agent><dc:title>linuxmuster.net e.V.</dc:title></cc:Agent></dc:rights><dc:publisher><cc:Agent><dc:title>linuxmuster.net e.V.</dc:title></cc:Agent></dc:publisher><dc:date>06.02.2020</dc:date></cc:Work><cc:License
       rdf:about="http://creativecommons.org/licenses/by-nd/4.0/"><cc:permits
         rdf:resource="http://creativecommons.org/ns#Reproduction" /><cc:permits
         rdf:resource="http://creativecommons.org/ns#Distribution" /><cc:requires
         rdf:resource="http://creativecommons.org/ns#Notice" /><cc:requires
         rdf:resource="http://creativecommons.org/ns#Attribution" /></cc:License></rdf:RDF></metadata><defs
   id="defs59"><clipPath
     id="clipPath849"
     clipPathUnits="userSpaceOnUse"><g
       id="use851"><text
   id="text855"
   y="65.243927"
   x="476.09482"
   style="font-style:normal;font-variant:normal;font-weight:normal;font-stretch:normal;line-height:0%;font-family:'aa QWERTZ-Tasten';-inkscape-font-specification:'aa QWERTZ-Tasten';letter-spacing:0px;word-spacing:0px;fill:#0c2842;fill-opacity:1;stroke:#f59c00;stroke-width:1.00031245;stroke-linecap:butt;stroke-linejoin:miter;stroke-miterlimit:4;stroke-dasharray:none;stroke-opacity:1"
   xml:space="preserve"><tspan
     style="font-style:italic;font-variant:normal;font-weight:600;font-stretch:normal;font-size:40px;line-height:1.25;font-family:'Titillium Web';-inkscape-font-specification:'Titillium Web Semi-Bold Italic';fill:#0c2842;fill-opacity:1;stroke:#f59c00;stroke-width:1.00031245;stroke-miterlimit:4;stroke-dasharray:none;stroke-opacity:1"
     y="65.243927"
     x="476.09482"
     id="tspan853">e.V.</tspan></text>








</g></clipPath></defs><path
   d="M 0,0.03624791 H 496.26123 V 84.516099 H 0 Z M 492.38676,0 h 77.08648 v 84.516098 h -77.08648 z"
   style="fill:#3c3c3b;fill-opacity:1;stroke-width:1.00801885"
   id="rect3" /><g
   transform="translate(-6.5523755,-2.372912)"
   id="text4189"
   style="font-style:normal;font-variant:normal;font-weight:normal;font-stretch:normal;font-size:18.18557167px;line-height:0%;font-family:'aa QWERTZ-Tasten';-inkscape-font-specification:'aa QWERTZ-Tasten';letter-spacing:0px;word-spacing:0px;fill:#f59c00;fill-opacity:1;stroke:#f59c00;stroke-width:2.55734587;stroke-linecap:butt;stroke-linejoin:miter;stroke-miterlimit:4;stroke-dasharray:none;stroke-opacity:1"
   aria-label="e.V." /><path
   d="m 22.30316,17.875549 h -7.248 c -0.654,0 -1.247,0.536 -1.247,1.188 v 41.716 c 0,0.652 0.593,1.247 1.247,1.247 h 7.248 c 0.654,0 1.129,-0.595 1.129,-1.247 v -41.716 c 0,-0.653 -0.475,-1.188 -1.129,-1.188 z"
   id="path25"
   style="fill:#ffffff" /><path
   d="m 39.20116,17.920549 h -7.723 c -0.654,0 -1.189,0.535 -1.189,1.188 v 4.674 c 0,0.654 0.536,1.189 1.189,1.189 h 7.723 c 0.654,0 1.189,-0.536 1.189,-1.189 v -4.674 c 10e-4,-0.653 -0.535,-1.188 -1.189,-1.188 z"
   id="path27"
   style="fill:#ffffff" /><path
   d="m 38.96516,27.984549 h -7.25 c -0.654,0 -1.187,0.535 -1.187,1.188 v 31.666 c 0,0.654 0.533,1.188 1.187,1.188 h 7.25 c 0.651,0 1.187,-0.534 1.187,-1.188 v -31.666 c 0,-0.654 -0.536,-1.188 -1.187,-1.188 z"
   id="path29"
   style="fill:#ffffff" /><path
   d="m 65.98716,27.508549 c -3.802,0 -6.417,0.772 -9.684,3.089 v -1.426 c 0,-0.654 -0.536,-1.188 -1.189,-1.188 h -6.654 c -0.654,0 -1.187,0.535 -1.187,1.188 v 31.607 c 0,0.652 0.594,1.247 1.248,1.247 h 7.189 c 0.651,0 1.187,-0.595 1.187,-1.247 v -23.408 c 2.02,-1.068 3.863,-1.901 5.585,-1.901 3.624,0 4.396,1.367 4.396,5.525 v 19.785 c 0,0.652 0.536,1.247 1.189,1.247 h 7.188 c 0.654,0 1.247,-0.595 1.247,-1.247 v -19.785 c -0.001,-7.486 -1.901,-13.486 -10.515,-13.486 z"
   id="path31"
   style="fill:#ffffff" /><path
   d="m 111.69916,27.984549 h -7.187 c -0.654,0 -1.189,0.594 -1.189,1.248 v 23.408 c -2.02,1.069 -3.863,1.901 -5.585,1.901 -3.624,0 -4.396,-1.366 -4.396,-5.526 v -19.784 c 0,-0.654 -0.536,-1.248 -1.188,-1.248 h -7.189 c -0.654,0 -1.248,0.594 -1.248,1.248 v 19.783 c 0,7.486 1.901,13.487 10.515,13.487 3.802,0 6.417,-0.772 9.684,-3.09 v 1.426 c 0,0.654 0.536,1.188 1.189,1.188 h 6.654 c 0.654,0 1.187,-0.534 1.187,-1.188 v -31.606 c 0,-0.654 -0.593,-1.247 -1.247,-1.247 z"
   id="path33"
   style="fill:#ffffff" /><path
   d="m 213.23816,27.508549 c -3.86,0 -6.237,0.95 -9.685,2.911 -1.662,-2.02 -3.86,-2.911 -7.008,-2.911 -3.448,0 -6.3,1.306 -8.794,2.97 v -1.306 c 0,-0.654 -0.536,-1.188 -1.187,-1.188 h -6.774 c -0.654,0 -1.187,0.535 -1.187,1.188 v 31.607 c 0,0.652 0.593,1.247 1.247,1.247 h 7.19 c 0.651,0 1.187,-0.595 1.187,-1.247 v -23.647 c 1.841,-0.951 3.387,-1.544 4.516,-1.544 2.731,0 3.445,1.128 3.445,4.93 v 20.261 c 0,0.652 0.594,1.247 1.248,1.247 h 7.189 c 0.651,0 1.187,-0.595 1.187,-1.247 v -20.261 c 0,-1.306 -0.06,-2.673 -0.178,-3.861 1.783,-0.831 3.566,-1.069 4.574,-1.069 2.733,0 3.624,1.128 3.624,4.93 v 20.261 c 0,0.652 0.536,1.247 1.189,1.247 h 7.19 c 0.651,0 1.247,-0.595 1.247,-1.247 v -20.261 c 0,-7.782 -2.376,-13.01 -10.22,-13.01 z"
   id="path35"
   style="fill:#ffffff" /><path
   d="m 258.77816,27.984549 h -7.189 c -0.653,0 -1.187,0.594 -1.187,1.248 v 23.408 c -2.022,1.069 -3.863,1.901 -5.586,1.901 -3.624,0 -4.396,-1.366 -4.396,-5.526 v -19.784 c 0,-0.654 -0.536,-1.248 -1.189,-1.248 h -7.19 c -0.651,0 -1.247,0.594 -1.247,1.248 v 19.783 c 0,7.486 1.901,13.487 10.517,13.487 3.802,0 6.415,-0.772 9.684,-3.09 v 1.426 c 0,0.654 0.533,1.188 1.188,1.188 h 6.654 c 0.653,0 1.188,-0.534 1.188,-1.188 v -31.606 c 0,-0.654 -0.593,-1.247 -1.247,-1.247 z"
   id="path37"
   style="fill:#ffffff" /><path
   d="m 285.50516,43.430549 -7.369,-4.218 c -1.187,-0.713 -1.84,-1.188 -1.84,-2.08 0,-1.367 0.832,-1.723 3.148,-1.723 3.029,0 8.14,0.534 9.862,0.772 0.058,0 0.118,0 0.179,0 0.594,0 1.009,-0.417 1.009,-1.128 v -4.813 c 0,-0.713 -0.415,-1.188 -1.13,-1.365 -3.027,-0.773 -5.879,-1.367 -10.574,-1.367 -8.198,0 -12.179,3.208 -12.179,9.208 0,3.863 1.961,6.893 5.288,8.794 l 7.723,4.455 c 1.663,0.95 2.198,1.604 2.198,2.495 0,1.545 -0.653,2.316 -3.506,2.316 -1.9,0 -6.891,-0.415 -10.099,-0.831 -0.061,0 -0.179,0 -0.239,0 -0.712,0 -1.127,0.534 -1.127,1.129 v 4.813 c 0,0.713 0.415,1.188 1.127,1.366 3.03,0.831 7.547,1.307 10.813,1.307 8.674,0 12.715,-4.396 12.715,-9.981 10e-4,-3.207 -1.068,-6.297 -5.999,-9.149 z"
   id="path39"
   style="fill:#ffffff" /><path
   d="m 316.14316,55.253549 h -2.91 c -1.783,0 -1.961,-0.415 -1.961,-2.792 v -17.289 h 4.871 c 0.653,0 1.189,-0.535 1.189,-1.188 v -4.812 c 0,-0.654 -0.536,-1.188 -1.189,-1.188 h -4.871 v -6.298 c 0,-0.593 -0.476,-1.01 -1.069,-1.01 -0.061,0 -0.12,0 -0.179,0 l -7.247,1.248 c -0.654,0.12 -1.189,0.534 -1.189,1.188 v 4.873 h -4.753 c -0.654,0 -1.247,0.594 -1.247,1.248 v 3.921 c 0,0.653 0.593,1.128 1.247,1.248 l 4.753,0.772 v 17.227 c 0,8.437 3.445,10.159 9.98,10.159 1.723,0 2.912,-0.179 4.693,-0.476 0.714,-0.118 1.129,-0.593 1.129,-1.188 v -4.634 c 0,-0.653 -0.475,-1.009 -1.247,-1.009 z"
   id="path41"
   style="fill:#ffffff" /><path
   d="m 336.92116,27.508549 c -9.445,0 -15.03,6.059 -15.03,15.625 v 4.158 c 0,11.467 7.723,15.269 14.912,15.269 5.168,0 8.377,-0.476 12.18,-1.426 1.011,-0.237 1.247,-0.654 1.247,-1.604 v -4.514 c 0,-0.654 -0.476,-0.951 -1.129,-0.951 -0.059,0 -0.118,0 -0.179,0 -2.374,0.236 -7.663,0.535 -11.407,0.535 -4.692,0 -6.118,-3.09 -6.118,-6.478 v -0.118 h 18.954 c 0.771,0 1.247,-0.534 1.247,-1.426 v -3.445 c 0,-8.971 -4.932,-15.625 -14.677,-15.625 z m 5.289,14.556 h -10.813 v -0.238 c 0,-4.336 2.198,-6.595 5.467,-6.595 3.327,0 5.347,2.199 5.347,6.595 v 0.238 z"
   id="path43"
   style="fill:#ffffff" /><path
   d="m 375.26716,27.508549 c -2.852,0 -5.821,1.01 -8.02,2.852 v -1.188 c 0,-0.654 -0.535,-1.188 -1.189,-1.188 h -7.069 c -0.653,0 -1.189,0.535 -1.189,1.188 v 31.607 c 0,0.652 0.597,1.247 1.25,1.247 h 7.188 c 0.653,0 1.189,-0.595 1.189,-1.247 v -23.23 c 2.198,-1.188 4.753,-2.08 7.662,-2.08 h 0.476 c 0.535,0 0.893,-0.594 0.893,-1.129 v -5.643 c -0.001,-0.654 -0.537,-1.189 -1.191,-1.189 z"
   id="path45"
   style="fill:#ffffff" /><circle
   cx="145.80817"
   cy="42.257549"
   r="6.3109999"
   id="circle47"
   style="fill:#ffffff" /><path
   d="m 375.22916,54.741549 h -0.389 c -0.646,0 -1.23,0.581 -1.23,1.229 v 4.786 c 0,0.712 0.584,1.229 1.23,1.229 h 0.389 c 0.646,0 1.228,-0.518 1.228,-1.229 v -4.786 c 0,-0.648 -0.582,-1.229 -1.228,-1.229 z"
   id="path49"
   style="fill:#ffffff" /><path
   d="m 395.91816,27.000549 c -3.363,0 -7.05,1.035 -10.413,2.653 v -1.035 c 0,-0.712 -0.453,-1.294 -1.165,-1.294 h -0.517 c -0.712,0 -1.165,0.583 -1.165,1.294 v 32.214 c 0,0.646 0.581,1.229 1.228,1.229 h 0.389 c 0.646,0 1.23,-0.583 1.23,-1.229 v -28.657 c 3.233,-1.552 6.922,-2.651 10.22,-2.651 4.853,0 8.734,2.457 8.734,9.833 v 21.476 c 0,0.646 0.516,1.229 1.162,1.229 h 0.454 c 0.712,0 1.228,-0.583 1.228,-1.229 v -21.476 c 0,-8.992 -5.175,-12.357 -11.385,-12.357 z"
   id="path51"
   style="fill:#ffffff" /><path
   d="m 426.57316,27.000549 c -8.539,0 -13.067,6.534 -13.067,15.461 v 4.27 c 0,12.226 6.533,15.72 14.556,15.72 2.909,0 6.596,-0.454 9.701,-1.101 0.973,-0.194 1.23,-0.518 1.23,-1.229 v -0.452 c 0,-0.841 -0.712,-0.971 -1.358,-0.841 -3.17,0.646 -6.729,1.099 -9.573,1.099 -6.471,0 -11.711,-2.328 -11.711,-13.195 v -1.358 h 21.865 c 0.647,0 1.229,-0.518 1.229,-1.229 v -1.746 c -10e-4,-9.188 -3.945,-15.399 -12.872,-15.399 z m 10.026,15.785 h -20.249 v -0.323 c 0,-7.698 3.042,-12.938 10.223,-12.938 7.31,0 10.026,4.722 10.026,12.873 z"
   id="path53"
   style="fill:#ffffff" /><path
   d="m 460.17116,29.976549 c 0.712,0 1.229,-0.388 1.229,-1.035 v -0.647 c 0,-0.647 -0.517,-0.971 -1.229,-0.971 h -7.698 v -6.662 c 0,-0.646 -0.389,-1.229 -1.035,-1.229 h -0.712 c -0.712,0 -1.1,0.583 -1.1,1.229 v 6.663 h -6.403 c -0.712,0 -1.229,0.323 -1.229,0.971 v 0.647 c 0,0.646 0.517,1.035 1.229,1.035 h 6.403 v 25.487 c 0,5.563 2.719,6.987 7.31,6.987 1.101,0 2.394,-0.065 3.363,-0.194 0.907,-0.129 1.101,-0.518 1.101,-1.035 v -0.389 c 0,-0.581 -0.389,-0.906 -1.358,-0.906 h -3.105 c -2.847,0 -4.463,-0.581 -4.463,-4.463 v -25.488 z"
   id="path55"
   style="fill:#ffffff" /><path
   d="m 515.85416,54.741549 h -0.389 c -0.646,0 -1.23,0.581 -1.23,1.229001 v 4.786 c 0,0.712 0.584,1.229 1.23,1.229 h 0.389 c 0.646,0 1.228,-0.518 1.228,-1.229 v -4.786 c 0,-0.648001 -0.582,-1.229001 -1.228,-1.229001 z"
   id="path49-3"
   style="fill:#ffffff;stroke-width:1" /><g
   aria-label="V"
   transform="matrix(0.93786447,0,0,0.90977365,290.00343,-69.451836)"
   style="font-style:normal;font-variant:normal;font-weight:normal;font-stretch:normal;font-size:13.33333302px;line-height:125%;font-family:'Titillium Web';-inkscape-font-specification:'Titillium Web, Normal';text-align:start;letter-spacing:0px;word-spacing:100px;writing-mode:lr-tb;text-anchor:start;fill:#b2b2b2;fill-opacity:1;stroke:#b2b2b2;stroke-width:1.06666672;stroke-linecap:butt;stroke-linejoin:miter;stroke-miterlimit:4;stroke-dasharray:none;stroke-opacity:1"
   id="flowRoot1461"><path
     d="m 272.35967,96.4948 h 10.24666 L 271.441,144.54813 h -18.02 L 242.25567,96.4948 h 10.24666 l 8.33867,39.57333 h 3.18 z"
     style="font-style:normal;font-variant:normal;font-weight:bold;font-stretch:normal;font-size:70.66666412px;font-family:'Titillium Web';-inkscape-font-specification:'Titillium Web Bold';fill:#b2b2b2;fill-opacity:1;stroke:#b2b2b2;stroke-width:1.06666672;stroke-linejoin:round;stroke-miterlimit:4;stroke-dasharray:none;stroke-opacity:1"
     id="path872" /></g><path
   d="m 556.64817,54.689347 h -0.389 c -0.646,0 -1.23,0.581 -1.23,1.229 v 4.786 c 0,0.712 0.584,1.229 1.23,1.229 h 0.389 c 0.646,0 1.228,-0.518 1.228,-1.229 v -4.786 c 0,-0.648 -0.582,-1.229 -1.228,-1.229 z"
   id="path49-6"
   style="fill:#ffffff;stroke-width:1" /><g
   transform="translate(-6.4378392,-2.3884511)"
   id="g5"><circle
     style="fill:#b2b2b2"
     id="circle7"
     r="6.3119998"
     cy="55.050999"
     cx="162.64999" /><circle
     style="fill:#b2b2b2"
     id="circle9"
     r="6.3109999"
     cy="65.456001"
     cx="173.05499" /><circle
     style="fill:#b2b2b2"
     id="circle11"
     r="6.3109999"
     cy="34.242001"
     cx="141.841" /><circle
     style="fill:#b2b2b2"
     id="circle13"
     r="6.3109999"
     cy="23.837"
     cx="131.436" /><circle
     style="fill:#b2b2b2"
     id="circle15"
     r="6.3109999"
     cy="55.050999"
     cx="141.841" /><circle
     style="fill:#b2b2b2"
     id="circle17"
     r="6.3109999"
     cy="65.456001"
     cx="131.436" /><circle
     style="fill:#b2b2b2"
     id="circle19"
     r="6.3119998"
     cy="34.242001"
     cx="162.64999" /><circle
     style="fill:#b2b2b2"
     id="circle21"
     r="6.3109999"
     cy="23.837"
     cx="173.05499" /></g>
<path
   d="m 492.41646,27.549612 c -9.445,0 -15.03,6.059 -15.03,15.625 v 4.158 c 0,11.467 7.723,15.269001 14.912,15.269001 5.168,0 8.377,-0.476 12.18,-1.426001 1.011,-0.237 1.247,-0.654 1.247,-1.603999 v -4.514 c 0,-0.654 -0.476,-0.951 -1.129,-0.951 -0.059,0 -0.118,0 -0.179,0 -2.374,0.236 -7.663,0.534999 -11.407,0.534999 -4.692,0 -6.118,-3.09 -6.118,-6.478 v -0.117999 h 18.954 c 0.771,0 1.247,-0.534 1.247,-1.426001 v -3.445 c 0,-8.971 -4.932,-15.625 -14.677,-15.625 z m 5.289,14.556 h -10.813 v -0.238 c 0,-4.336 2.198,-6.595 5.467,-6.595 3.327,0 5.347,2.199 5.347,6.595 v 0.238 z"
   id="path43-6"
   style="fill:#b2b2b2;stroke:none;stroke-width:1" /></svg>