<?xml version="1.0" encoding="UTF-8" standalone="no"?>
<!-- Generator: Adobe Illustrator 16.0.0, SVG Export Plug-In . SVG Version: 6.00 Build 0)  -->

<svg
   xmlns:dc="http://purl.org/dc/elements/1.1/"
   xmlns:cc="http://creativecommons.org/ns#"
   xmlns:rdf="http://www.w3.org/1999/02/22-rdf-syntax-ns#"
   xmlns:svg="http://www.w3.org/2000/svg"
   xmlns="http://www.w3.org/2000/svg"
   xmlns:sodipodi="http://sodipodi.sourceforge.net/DTD/sodipodi-0.dtd"
   xmlns:inkscape="http://www.inkscape.org/namespaces/inkscape"
   version="1.1"
   id="Ebene_1"
   x="0px"
   y="0px"
   width="488.038px"
   height="84.542px"
   viewBox="0 0 488.038 84.542"
   enable-background="new 0 0 488.038 84.542"
   xml:space="preserve"
   sodipodi:docname="logo-linuxmuster-4c-cmyk-positiv.svg"
   inkscape:version="0.92.3 (2405546, 2018-03-11)"><metadata
   id="metadata59"><rdf:RDF><cc:Work
       rdf:about=""><dc:format>image/svg+xml</dc:format><dc:type
         rdf:resource="http://purl.org/dc/dcmitype/StillImage" /><dc:title></dc:title><cc:license
         rdf:resource="http://creativecommons.org/licenses/by-nd/4.0/" /></cc:Work><cc:License
       rdf:about="http://creativecommons.org/licenses/by-nd/4.0/"><cc:permits
         rdf:resource="http://creativecommons.org/ns#Reproduction" /><cc:permits
         rdf:resource="http://creativecommons.org/ns#Distribution" /><cc:requires
         rdf:resource="http://creativecommons.org/ns#Notice" /><cc:requires
         rdf:resource="http://creativecommons.org/ns#Attribution" /></cc:License></rdf:RDF></metadata><defs
   id="defs57" /><sodipodi:namedview
   pagecolor="#ffffff"
   bordercolor="#666666"
   borderopacity="1"
   objecttolerance="10"
   gridtolerance="10"
   guidetolerance="10"
   inkscape:pageopacity="0"
   inkscape:pageshadow="2"
   inkscape:window-width="1050"
   inkscape:window-height="489"
   id="namedview55"
   showgrid="false"
   inkscape:zoom="1.0122163"
   inkscape:cx="100.27501"
   inkscape:cy="42.271"
   inkscape:window-x="37"
   inkscape:window-y="0"
   inkscape:window-maximized="0"
   inkscape:current-layer="Ebene_1" />
<g
   id="g18">
	<circle
   fill="#F59C00"
   cx="162.65"
   cy="55.051"
   r="6.312"
   id="circle2" />
	<circle
   fill="#F59C00"
   cx="173.055"
   cy="65.456"
   r="6.311"
   id="circle4" />
	<circle
   fill="#F59C00"
   cx="141.841"
   cy="34.242"
   r="6.311"
   id="circle6" />
	<circle
   fill="#F59C00"
   cx="131.436"
   cy="23.837"
   r="6.311"
   id="circle8" />
	<circle
   fill="#F59C00"
   cx="141.841"
   cy="55.051"
   r="6.311"
   id="circle10" />
	<circle
   fill="#F59C00"
   cx="131.436"
   cy="65.456"
   r="6.311"
   id="circle12" />
	<circle
   fill="#F59C00"
   cx="162.65"
   cy="34.242"
   r="6.312"
   id="circle14" />
	<circle
   fill="#F59C00"
   cx="173.055"
   cy="23.837"
   r="6.311"
   id="circle16" />
</g>
<g
   id="g52">
	<path
   fill="#0C2842"
   d="M28.741,20.264h-7.248c-0.654,0-1.247,0.536-1.247,1.188v41.716c0,0.652,0.593,1.247,1.247,1.247h7.248   c0.654,0,1.129-0.595,1.129-1.247V21.452C29.87,20.799,29.395,20.264,28.741,20.264z"
   id="path20" />
	<path
   fill="#0C2842"
   d="M45.639,20.309h-7.723c-0.654,0-1.189,0.535-1.189,1.188v4.674c0,0.654,0.536,1.189,1.189,1.189h7.723   c0.654,0,1.189-0.536,1.189-1.189v-4.674C46.829,20.844,46.293,20.309,45.639,20.309z"
   id="path22" />
	<path
   fill="#0C2842"
   d="M45.403,30.373h-7.25c-0.654,0-1.187,0.535-1.187,1.188v31.666c0,0.654,0.533,1.188,1.187,1.188h7.25   c0.651,0,1.187-0.534,1.187-1.188V31.561C46.59,30.907,46.054,30.373,45.403,30.373z"
   id="path24" />
	<path
   fill="#0C2842"
   d="M72.425,29.897c-3.802,0-6.417,0.772-9.684,3.089v-1.426c0-0.654-0.536-1.188-1.189-1.188h-6.654   c-0.654,0-1.187,0.535-1.187,1.188v31.607c0,0.652,0.594,1.247,1.248,1.247h7.189c0.651,0,1.187-0.595,1.187-1.247V39.759   c2.02-1.068,3.863-1.901,5.585-1.901c3.624,0,4.396,1.367,4.396,5.525v19.785c0,0.652,0.536,1.247,1.189,1.247h7.188   c0.654,0,1.247-0.595,1.247-1.247V43.383C82.939,35.897,81.039,29.897,72.425,29.897z"
   id="path26" />
	<path
   fill="#0C2842"
   d="M118.137,30.373h-7.187c-0.654,0-1.189,0.594-1.189,1.248v23.408c-2.02,1.069-3.863,1.901-5.585,1.901   c-3.624,0-4.396-1.366-4.396-5.526V31.62c0-0.654-0.536-1.248-1.188-1.248h-7.189c-0.654,0-1.248,0.594-1.248,1.248v19.783   c0,7.486,1.901,13.487,10.515,13.487c3.802,0,6.417-0.772,9.684-3.09v1.426c0,0.654,0.536,1.188,1.189,1.188h6.654   c0.654,0,1.187-0.534,1.187-1.188V31.62C119.384,30.966,118.791,30.373,118.137,30.373z"
   id="path28" />
	<path
   fill="#0C2842"
   d="M219.676,29.897c-3.86,0-6.237,0.95-9.685,2.911c-1.662-2.02-3.86-2.911-7.008-2.911   c-3.448,0-6.3,1.306-8.794,2.97v-1.306c0-0.654-0.536-1.188-1.187-1.188h-6.774c-0.654,0-1.187,0.535-1.187,1.188v31.607   c0,0.652,0.593,1.247,1.247,1.247h7.19c0.651,0,1.187-0.595,1.187-1.247V39.521c1.841-0.951,3.387-1.544,4.516-1.544   c2.731,0,3.445,1.128,3.445,4.93v20.261c0,0.652,0.594,1.247,1.248,1.247h7.189c0.651,0,1.187-0.595,1.187-1.247V42.907   c0-1.306-0.06-2.673-0.178-3.861c1.783-0.831,3.566-1.069,4.574-1.069c2.733,0,3.624,1.128,3.624,4.93v20.261   c0,0.652,0.536,1.247,1.189,1.247h7.19c0.651,0,1.247-0.595,1.247-1.247V42.907C229.896,35.125,227.52,29.897,219.676,29.897z"
   id="path30" />
	<path
   fill="#0C2842"
   d="M265.216,30.373h-7.189c-0.653,0-1.187,0.594-1.187,1.248v23.408c-2.022,1.069-3.863,1.901-5.586,1.901   c-3.624,0-4.396-1.366-4.396-5.526V31.62c0-0.654-0.536-1.248-1.189-1.248h-7.19c-0.651,0-1.247,0.594-1.247,1.248v19.783   c0,7.486,1.901,13.487,10.517,13.487c3.802,0,6.415-0.772,9.684-3.09v1.426c0,0.654,0.533,1.188,1.188,1.188h6.654   c0.653,0,1.188-0.534,1.188-1.188V31.62C266.463,30.966,265.87,30.373,265.216,30.373z"
   id="path32" />
	<path
   fill="#0C2842"
   d="M291.943,45.819l-7.369-4.218c-1.187-0.713-1.84-1.188-1.84-2.08c0-1.367,0.832-1.723,3.148-1.723   c3.029,0,8.14,0.534,9.862,0.772c0.058,0,0.118,0,0.179,0c0.594,0,1.009-0.417,1.009-1.128v-4.813c0-0.713-0.415-1.188-1.13-1.365   c-3.027-0.773-5.879-1.367-10.574-1.367c-8.198,0-12.179,3.208-12.179,9.208c0,3.863,1.961,6.893,5.288,8.794l7.723,4.455   c1.663,0.95,2.198,1.604,2.198,2.495c0,1.545-0.653,2.316-3.506,2.316c-1.9,0-6.891-0.415-10.099-0.831c-0.061,0-0.179,0-0.239,0   c-0.712,0-1.127,0.534-1.127,1.129v4.813c0,0.713,0.415,1.188,1.127,1.366c3.03,0.831,7.547,1.307,10.813,1.307   c8.674,0,12.715-4.396,12.715-9.981C297.943,51.761,296.874,48.671,291.943,45.819z"
   id="path34" />
	<path
   fill="#0C2842"
   d="M322.581,57.642h-2.91c-1.783,0-1.961-0.415-1.961-2.792V37.561h4.871c0.653,0,1.189-0.535,1.189-1.188   v-4.812c0-0.654-0.536-1.188-1.189-1.188h-4.871v-6.298c0-0.593-0.476-1.01-1.069-1.01c-0.061,0-0.12,0-0.179,0l-7.247,1.248   c-0.654,0.12-1.189,0.534-1.189,1.188v4.873h-4.753c-0.654,0-1.247,0.594-1.247,1.248v3.921c0,0.653,0.593,1.128,1.247,1.248   l4.753,0.772V54.79c0,8.437,3.445,10.159,9.98,10.159c1.723,0,2.912-0.179,4.693-0.476c0.714-0.118,1.129-0.593,1.129-1.188v-4.634   C323.828,57.998,323.353,57.642,322.581,57.642z"
   id="path36" />
	<path
   fill="#0C2842"
   d="M343.359,29.897c-9.445,0-15.03,6.059-15.03,15.625v4.158c0,11.467,7.723,15.269,14.912,15.269   c5.168,0,8.377-0.476,12.18-1.426c1.011-0.237,1.247-0.654,1.247-1.604v-4.514c0-0.654-0.476-0.951-1.129-0.951   c-0.059,0-0.118,0-0.179,0c-2.374,0.236-7.663,0.535-11.407,0.535c-4.692,0-6.118-3.09-6.118-6.478v-0.118h18.954   c0.771,0,1.247-0.534,1.247-1.426v-3.445C358.036,36.551,353.104,29.897,343.359,29.897z M348.648,44.453h-10.813v-0.238   c0-4.336,2.198-6.595,5.467-6.595c3.327,0,5.347,2.199,5.347,6.595V44.453z"
   id="path38" />
	<path
   fill="#0C2842"
   d="M381.705,29.897c-2.852,0-5.821,1.01-8.02,2.852v-1.188c0-0.654-0.535-1.188-1.189-1.188h-7.069   c-0.653,0-1.189,0.535-1.189,1.188v31.607c0,0.652,0.597,1.247,1.25,1.247h7.188c0.653,0,1.189-0.595,1.189-1.247v-23.23   c2.198-1.188,4.753-2.08,7.662-2.08h0.476c0.535,0,0.893-0.594,0.893-1.129v-5.643C382.895,30.432,382.359,29.897,381.705,29.897z"
   id="path40" />
	<circle
   fill="#0C2842"
   cx="152.246"
   cy="44.646"
   r="6.311"
   id="circle42" />
	<path
   fill="#0C2842"
   d="M381.667,57.13h-0.389c-0.646,0-1.23,0.581-1.23,1.229v4.786c0,0.712,0.584,1.229,1.23,1.229h0.389   c0.646,0,1.228-0.518,1.228-1.229v-4.786C382.895,57.711,382.313,57.13,381.667,57.13z"
   id="path44" />
	<path
   fill="#0C2842"
   d="M402.356,29.389c-3.363,0-7.05,1.035-10.413,2.653v-1.035c0-0.712-0.453-1.294-1.165-1.294h-0.517   c-0.712,0-1.165,0.583-1.165,1.294v32.214c0,0.646,0.581,1.229,1.228,1.229h0.389c0.646,0,1.23-0.583,1.23-1.229V34.564   c3.233-1.552,6.922-2.651,10.22-2.651c4.853,0,8.734,2.457,8.734,9.833v21.476c0,0.646,0.516,1.229,1.162,1.229h0.454   c0.712,0,1.228-0.583,1.228-1.229V41.746C413.741,32.754,408.566,29.389,402.356,29.389z"
   id="path46" />
	<path
   fill="#0C2842"
   d="M433.011,29.389c-8.539,0-13.067,6.534-13.067,15.461v4.27c0,12.226,6.533,15.72,14.556,15.72   c2.909,0,6.596-0.454,9.701-1.101c0.973-0.194,1.23-0.518,1.23-1.229v-0.452c0-0.841-0.712-0.971-1.358-0.841   c-3.17,0.646-6.729,1.099-9.573,1.099c-6.471,0-11.711-2.328-11.711-13.195v-1.358h21.865c0.647,0,1.229-0.518,1.229-1.229v-1.746   C445.882,35.6,441.938,29.389,433.011,29.389z M443.037,45.174h-20.249v-0.323c0-7.698,3.042-12.938,10.223-12.938   c7.31,0,10.026,4.722,10.026,12.873V45.174z"
   id="path48" />
	<path
   fill="#0C2842"
   d="M466.609,32.365c0.712,0,1.229-0.388,1.229-1.035v-0.647c0-0.647-0.517-0.971-1.229-0.971h-7.698V23.05   c0-0.646-0.389-1.229-1.035-1.229h-0.712c-0.712,0-1.1,0.583-1.1,1.229v6.663h-6.403c-0.712,0-1.229,0.323-1.229,0.971v0.647   c0,0.646,0.517,1.035,1.229,1.035h6.403v25.487c0,5.563,2.719,6.987,7.31,6.987c1.101,0,2.394-0.065,3.363-0.194   c0.907-0.129,1.101-0.518,1.101-1.035v-0.389c0-0.581-0.389-0.906-1.358-0.906h-3.105c-2.847,0-4.463-0.581-4.463-4.463V32.365   H466.609z"
   id="path50" />
</g>
</svg>