<?xml version="1.0" encoding="UTF-8" standalone="no"?>
<!-- Generator: Adobe Illustrator 16.0.0, SVG Export Plug-In . SVG Version: 6.00 Build 0)  -->

<svg
   xmlns:dc="http://purl.org/dc/elements/1.1/"
   xmlns:cc="http://creativecommons.org/ns#"
   xmlns:rdf="http://www.w3.org/1999/02/22-rdf-syntax-ns#"
   xmlns:svg="http://www.w3.org/2000/svg"
   xmlns="http://www.w3.org/2000/svg"
   xmlns:sodipodi="http://sodipodi.sourceforge.net/DTD/sodipodi-0.dtd"
   xmlns:inkscape="http://www.inkscape.org/namespaces/inkscape"
   version="1.1"
   id="Ebene_1"
   x="0px"
   y="0px"
   width="492.03799"
   height="84.542"
   viewBox="0 0 492.038 84.542"
   enable-background="new 0 0 488.038 84.542"
   xml:space="preserve"
   sodipodi:docname="logo-linuxmuster-1c-cmyk-positiv.svg"
   inkscape:version="0.92.3 (2405546, 2018-03-11)"><metadata
   id="metadata59"><rdf:RDF><cc:Work
       rdf:about=""><dc:format>image/svg+xml</dc:format><dc:type
         rdf:resource="http://purl.org/dc/dcmitype/StillImage" /><dc:title></dc:title><cc:license
         rdf:resource="http://creativecommons.org/licenses/by-nd/4.0/" /></cc:Work><cc:License
       rdf:about="http://creativecommons.org/licenses/by-nd/4.0/"><cc:permits
         rdf:resource="http://creativecommons.org/ns#Reproduction" /><cc:permits
         rdf:resource="http://creativecommons.org/ns#Distribution" /><cc:requires
         rdf:resource="http://creativecommons.org/ns#Notice" /><cc:requires
         rdf:resource="http://creativecommons.org/ns#Attribution" /></cc:License></rdf:RDF></metadata><defs
   id="defs57" /><sodipodi:namedview
   pagecolor="#ffffff"
   bordercolor="#666666"
   borderopacity="1"
   objecttolerance="10"
   gridtolerance="10"
   guidetolerance="10"
   inkscape:pageopacity="0"
   inkscape:pageshadow="2"
   inkscape:window-width="1329"
   inkscape:window-height="739"
   id="namedview55"
   showgrid="false"
   inkscape:zoom="1.0122163"
   inkscape:cx="87.925873"
   inkscape:cy="42.271"
   inkscape:window-x="37"
   inkscape:window-y="0"
   inkscape:window-maximized="1"
   inkscape:current-layer="Ebene_1" />
<g
   id="g18">
	<circle
   cx="162.64999"
   cy="55.050999"
   r="6.3119998"
   id="circle2"
   style="fill:#9d9d9c" />
	<circle
   cx="173.05499"
   cy="65.456001"
   r="6.3109999"
   id="circle4"
   style="fill:#9d9d9c" />
	<circle
   cx="141.841"
   cy="34.242001"
   r="6.3109999"
   id="circle6"
   style="fill:#9d9d9c" />
	<circle
   cx="131.436"
   cy="23.837"
   r="6.3109999"
   id="circle8"
   style="fill:#9d9d9c" />
	<circle
   cx="141.841"
   cy="55.050999"
   r="6.3109999"
   id="circle10"
   style="fill:#9d9d9c" />
	<circle
   cx="131.436"
   cy="65.456001"
   r="6.3109999"
   id="circle12"
   style="fill:#9d9d9c" />
	<circle
   cx="162.64999"
   cy="34.242001"
   r="6.3119998"
   id="circle14"
   style="fill:#9d9d9c" />
	<circle
   cx="173.05499"
   cy="23.837"
   r="6.3109999"
   id="circle16"
   style="fill:#9d9d9c" />
</g>
<g
   id="g52">
	<path
   d="m 28.741,20.264 h -7.248 c -0.654,0 -1.247,0.536 -1.247,1.188 v 41.716 c 0,0.652 0.593,1.247 1.247,1.247 h 7.248 c 0.654,0 1.129,-0.595 1.129,-1.247 V 21.452 c 0,-0.653 -0.475,-1.188 -1.129,-1.188 z"
   id="path20"
   inkscape:connector-curvature="0"
   style="fill:#3c3c3b" />
	<path
   d="m 45.639,20.309 h -7.723 c -0.654,0 -1.189,0.535 -1.189,1.188 v 4.674 c 0,0.654 0.536,1.189 1.189,1.189 h 7.723 c 0.654,0 1.189,-0.536 1.189,-1.189 v -4.674 c 10e-4,-0.653 -0.535,-1.188 -1.189,-1.188 z"
   id="path22"
   inkscape:connector-curvature="0"
   style="fill:#3c3c3b" />
	<path
   d="m 45.403,30.373 h -7.25 c -0.654,0 -1.187,0.535 -1.187,1.188 v 31.666 c 0,0.654 0.533,1.188 1.187,1.188 h 7.25 c 0.651,0 1.187,-0.534 1.187,-1.188 V 31.561 c 0,-0.654 -0.536,-1.188 -1.187,-1.188 z"
   id="path24"
   inkscape:connector-curvature="0"
   style="fill:#3c3c3b" />
	<path
   d="m 72.425,29.897 c -3.802,0 -6.417,0.772 -9.684,3.089 V 31.56 c 0,-0.654 -0.536,-1.188 -1.189,-1.188 h -6.654 c -0.654,0 -1.187,0.535 -1.187,1.188 v 31.607 c 0,0.652 0.594,1.247 1.248,1.247 h 7.189 c 0.651,0 1.187,-0.595 1.187,-1.247 V 39.759 c 2.02,-1.068 3.863,-1.901 5.585,-1.901 3.624,0 4.396,1.367 4.396,5.525 v 19.785 c 0,0.652 0.536,1.247 1.189,1.247 h 7.188 c 0.654,0 1.247,-0.595 1.247,-1.247 V 43.383 C 82.939,35.897 81.039,29.897 72.425,29.897 Z"
   id="path26"
   inkscape:connector-curvature="0"
   style="fill:#3c3c3b" />
	<path
   d="m 118.137,30.373 h -7.187 c -0.654,0 -1.189,0.594 -1.189,1.248 v 23.408 c -2.02,1.069 -3.863,1.901 -5.585,1.901 -3.624,0 -4.396,-1.366 -4.396,-5.526 V 31.62 c 0,-0.654 -0.536,-1.248 -1.188,-1.248 h -7.189 c -0.654,0 -1.248,0.594 -1.248,1.248 v 19.783 c 0,7.486 1.901,13.487 10.515,13.487 3.802,0 6.417,-0.772 9.684,-3.09 v 1.426 c 0,0.654 0.536,1.188 1.189,1.188 h 6.654 c 0.654,0 1.187,-0.534 1.187,-1.188 V 31.62 c 0,-0.654 -0.593,-1.247 -1.247,-1.247 z"
   id="path28"
   inkscape:connector-curvature="0"
   style="fill:#3c3c3b" />
	<path
   d="m 219.676,29.897 c -3.86,0 -6.237,0.95 -9.685,2.911 -1.662,-2.02 -3.86,-2.911 -7.008,-2.911 -3.448,0 -6.3,1.306 -8.794,2.97 v -1.306 c 0,-0.654 -0.536,-1.188 -1.187,-1.188 h -6.774 c -0.654,0 -1.187,0.535 -1.187,1.188 v 31.607 c 0,0.652 0.593,1.247 1.247,1.247 h 7.19 c 0.651,0 1.187,-0.595 1.187,-1.247 V 39.521 c 1.841,-0.951 3.387,-1.544 4.516,-1.544 2.731,0 3.445,1.128 3.445,4.93 v 20.261 c 0,0.652 0.594,1.247 1.248,1.247 h 7.189 c 0.651,0 1.187,-0.595 1.187,-1.247 V 42.907 c 0,-1.306 -0.06,-2.673 -0.178,-3.861 1.783,-0.831 3.566,-1.069 4.574,-1.069 2.733,0 3.624,1.128 3.624,4.93 v 20.261 c 0,0.652 0.536,1.247 1.189,1.247 h 7.19 c 0.651,0 1.247,-0.595 1.247,-1.247 V 42.907 c 0,-7.782 -2.376,-13.01 -10.22,-13.01 z"
   id="path30"
   inkscape:connector-curvature="0"
   style="fill:#3c3c3b" />
	<path
   d="m 265.216,30.373 h -7.189 c -0.653,0 -1.187,0.594 -1.187,1.248 v 23.408 c -2.022,1.069 -3.863,1.901 -5.586,1.901 -3.624,0 -4.396,-1.366 -4.396,-5.526 V 31.62 c 0,-0.654 -0.536,-1.248 -1.189,-1.248 h -7.19 c -0.651,0 -1.247,0.594 -1.247,1.248 v 19.783 c 0,7.486 1.901,13.487 10.517,13.487 3.802,0 6.415,-0.772 9.684,-3.09 v 1.426 c 0,0.654 0.533,1.188 1.188,1.188 h 6.654 c 0.653,0 1.188,-0.534 1.188,-1.188 V 31.62 c 0,-0.654 -0.593,-1.247 -1.247,-1.247 z"
   id="path32"
   inkscape:connector-curvature="0"
   style="fill:#3c3c3b" />
	<path
   d="m 291.943,45.819 -7.369,-4.218 c -1.187,-0.713 -1.84,-1.188 -1.84,-2.08 0,-1.367 0.832,-1.723 3.148,-1.723 3.029,0 8.14,0.534 9.862,0.772 0.058,0 0.118,0 0.179,0 0.594,0 1.009,-0.417 1.009,-1.128 v -4.813 c 0,-0.713 -0.415,-1.188 -1.13,-1.365 -3.027,-0.773 -5.879,-1.367 -10.574,-1.367 -8.198,0 -12.179,3.208 -12.179,9.208 0,3.863 1.961,6.893 5.288,8.794 l 7.723,4.455 c 1.663,0.95 2.198,1.604 2.198,2.495 0,1.545 -0.653,2.316 -3.506,2.316 -1.9,0 -6.891,-0.415 -10.099,-0.831 -0.061,0 -0.179,0 -0.239,0 -0.712,0 -1.127,0.534 -1.127,1.129 v 4.813 c 0,0.713 0.415,1.188 1.127,1.366 3.03,0.831 7.547,1.307 10.813,1.307 8.674,0 12.715,-4.396 12.715,-9.981 10e-4,-3.207 -1.068,-6.297 -5.999,-9.149 z"
   id="path34"
   inkscape:connector-curvature="0"
   style="fill:#3c3c3b" />
	<path
   d="m 322.581,57.642 h -2.91 c -1.783,0 -1.961,-0.415 -1.961,-2.792 V 37.561 h 4.871 c 0.653,0 1.189,-0.535 1.189,-1.188 v -4.812 c 0,-0.654 -0.536,-1.188 -1.189,-1.188 h -4.871 v -6.298 c 0,-0.593 -0.476,-1.01 -1.069,-1.01 -0.061,0 -0.12,0 -0.179,0 l -7.247,1.248 c -0.654,0.12 -1.189,0.534 -1.189,1.188 v 4.873 h -4.753 c -0.654,0 -1.247,0.594 -1.247,1.248 v 3.921 c 0,0.653 0.593,1.128 1.247,1.248 l 4.753,0.772 V 54.79 c 0,8.437 3.445,10.159 9.98,10.159 1.723,0 2.912,-0.179 4.693,-0.476 0.714,-0.118 1.129,-0.593 1.129,-1.188 v -4.634 c 0,-0.653 -0.475,-1.009 -1.247,-1.009 z"
   id="path36"
   inkscape:connector-curvature="0"
   style="fill:#3c3c3b" />
	<path
   d="m 343.359,29.897 c -9.445,0 -15.03,6.059 -15.03,15.625 v 4.158 c 0,11.467 7.723,15.269 14.912,15.269 5.168,0 8.377,-0.476 12.18,-1.426 1.011,-0.237 1.247,-0.654 1.247,-1.604 v -4.514 c 0,-0.654 -0.476,-0.951 -1.129,-0.951 -0.059,0 -0.118,0 -0.179,0 -2.374,0.236 -7.663,0.535 -11.407,0.535 -4.692,0 -6.118,-3.09 -6.118,-6.478 v -0.118 h 18.954 c 0.771,0 1.247,-0.534 1.247,-1.426 v -3.445 c 0,-8.971 -4.932,-15.625 -14.677,-15.625 z m 5.289,14.556 h -10.813 v -0.238 c 0,-4.336 2.198,-6.595 5.467,-6.595 3.327,0 5.347,2.199 5.347,6.595 v 0.238 z"
   id="path38"
   inkscape:connector-curvature="0"
   style="fill:#3c3c3b" />
	<path
   d="m 381.705,29.897 c -2.852,0 -5.821,1.01 -8.02,2.852 v -1.188 c 0,-0.654 -0.535,-1.188 -1.189,-1.188 h -7.069 c -0.653,0 -1.189,0.535 -1.189,1.188 v 31.607 c 0,0.652 0.597,1.247 1.25,1.247 h 7.188 c 0.653,0 1.189,-0.595 1.189,-1.247 v -23.23 c 2.198,-1.188 4.753,-2.08 7.662,-2.08 h 0.476 c 0.535,0 0.893,-0.594 0.893,-1.129 v -5.643 c -0.001,-0.654 -0.537,-1.189 -1.191,-1.189 z"
   id="path40"
   inkscape:connector-curvature="0"
   style="fill:#3c3c3b" />
	<circle
   cx="152.246"
   cy="44.646"
   r="6.3109999"
   id="circle42"
   style="fill:#3c3c3b" />
	<path
   d="m 381.667,57.13 h -0.389 c -0.646,0 -1.23,0.581 -1.23,1.229 v 4.786 c 0,0.712 0.584,1.229 1.23,1.229 h 0.389 c 0.646,0 1.228,-0.518 1.228,-1.229 v -4.786 c 0,-0.648 -0.582,-1.229 -1.228,-1.229 z"
   id="path44"
   inkscape:connector-curvature="0"
   style="fill:#3c3c3b" />
	<path
   d="m 402.356,29.389 c -3.363,0 -7.05,1.035 -10.413,2.653 v -1.035 c 0,-0.712 -0.453,-1.294 -1.165,-1.294 h -0.517 c -0.712,0 -1.165,0.583 -1.165,1.294 v 32.214 c 0,0.646 0.581,1.229 1.228,1.229 h 0.389 c 0.646,0 1.23,-0.583 1.23,-1.229 V 34.564 c 3.233,-1.552 6.922,-2.651 10.22,-2.651 4.853,0 8.734,2.457 8.734,9.833 v 21.476 c 0,0.646 0.516,1.229 1.162,1.229 h 0.454 c 0.712,0 1.228,-0.583 1.228,-1.229 V 41.746 c 0,-8.992 -5.175,-12.357 -11.385,-12.357 z"
   id="path46"
   inkscape:connector-curvature="0"
   style="fill:#3c3c3b" />
	<path
   d="m 433.011,29.389 c -8.539,0 -13.067,6.534 -13.067,15.461 v 4.27 c 0,12.226 6.533,15.72 14.556,15.72 2.909,0 6.596,-0.454 9.701,-1.101 0.973,-0.194 1.23,-0.518 1.23,-1.229 v -0.452 c 0,-0.841 -0.712,-0.971 -1.358,-0.841 -3.17,0.646 -6.729,1.099 -9.573,1.099 -6.471,0 -11.711,-2.328 -11.711,-13.195 v -1.358 h 21.865 c 0.647,0 1.229,-0.518 1.229,-1.229 V 44.788 C 445.882,35.6 441.938,29.389 433.011,29.389 Z m 10.026,15.785 h -20.249 v -0.323 c 0,-7.698 3.042,-12.938 10.223,-12.938 7.31,0 10.026,4.722 10.026,12.873 z"
   id="path48"
   inkscape:connector-curvature="0"
   style="fill:#3c3c3b" />
	<path
   d="m 466.609,32.365 c 0.712,0 1.229,-0.388 1.229,-1.035 v -0.647 c 0,-0.647 -0.517,-0.971 -1.229,-0.971 h -7.698 V 23.05 c 0,-0.646 -0.389,-1.229 -1.035,-1.229 h -0.712 c -0.712,0 -1.1,0.583 -1.1,1.229 v 6.663 h -6.403 c -0.712,0 -1.229,0.323 -1.229,0.971 v 0.647 c 0,0.646 0.517,1.035 1.229,1.035 h 6.403 v 25.487 c 0,5.563 2.719,6.987 7.31,6.987 1.101,0 2.394,-0.065 3.363,-0.194 0.907,-0.129 1.101,-0.518 1.101,-1.035 v -0.389 c 0,-0.581 -0.389,-0.906 -1.358,-0.906 h -3.105 c -2.847,0 -4.463,-0.581 -4.463,-4.463 V 32.365 Z"
   id="path50"
   inkscape:connector-curvature="0"
   style="fill:#3c3c3b" />
</g>
</svg>